<?xml version="1.0" standalone="no"?>
<!DOCTYPE svg PUBLIC "-//W3C//DTD SVG 20010904//EN"
 "http://www.w3.org/TR/2001/REC-SVG-20010904/DTD/svg10.dtd">
<svg version="1.0" xmlns="http://www.w3.org/2000/svg"
 width="2649.000000pt" height="973.000000pt" viewBox="0 0 2649.000000 973.000000"
 preserveAspectRatio="xMidYMid meet">

<g transform="translate(0.000000,973.000000) scale(0.100000,-0.100000)"
fill="#000000" stroke="none">
<path d="M80 9000 l0 -650 655 0 655 0 0 650 0 650 -655 0 -655 0 0 -650z"/>
<path d="M1470 9000 l0 -650 655 0 655 0 0 650 0 650 -655 0 -655 0 0 -650z"/>
<path d="M2860 9000 l0 -650 655 0 655 0 0 650 0 650 -655 0 -655 0 0 -650z"/>
<path d="M7030 9000 l0 -650 655 0 655 0 0 650 0 650 -655 0 -655 0 0 -650z"/>
<path d="M11200 9000 l0 -650 655 0 655 0 0 650 0 650 -655 0 -655 0 0 -650z"/>
<path d="M13980 9000 l0 -650 655 0 655 0 0 650 0 650 -655 0 -655 0 0 -650z"/>
<path d="M15370 9000 l0 -650 655 0 655 0 0 650 0 650 -655 0 -655 0 0 -650z"/>
<path d="M16760 9000 l0 -650 655 0 655 0 0 650 0 650 -655 0 -655 0 0 -650z"/>
<path d="M20930 9000 l0 -650 655 0 655 0 0 650 0 650 -655 0 -655 0 0 -650z"/>
<path d="M22320 9000 l0 -650 655 0 655 0 0 650 0 650 -655 0 -655 0 0 -650z"/>
<path d="M23710 9000 l0 -650 655 0 655 0 0 650 0 650 -655 0 -655 0 0 -650z"/>
<path d="M80 7620 l0 -650 655 0 655 0 0 650 0 650 -655 0 -655 0 0 -650z"/>
<path d="M4250 7620 l0 -650 655 0 655 0 0 650 0 650 -655 0 -655 0 0 -650z"/>
<path d="M7030 7620 l0 -650 655 0 655 0 0 650 0 650 -655 0 -655 0 0 -650z"/>
<path d="M11200 7620 l0 -650 655 0 655 0 0 650 0 650 -655 0 -655 0 0 -650z"/>
<path d="M13980 7620 l0 -650 655 0 655 0 0 650 0 650 -655 0 -655 0 0 -650z"/>
<path d="M18150 7620 l0 -650 655 0 655 0 0 650 0 650 -655 0 -655 0 0 -650z"/>
<path d="M20930 7620 l0 -650 655 0 655 0 0 650 0 650 -655 0 -655 0 0 -650z"/>
<path d="M25100 7620 l0 -650 655 0 655 0 0 650 0 650 -655 0 -655 0 0 -650z"/>
<path d="M80 6240 l0 -650 655 0 655 0 0 650 0 650 -655 0 -655 0 0 -650z"/>
<path d="M4250 6240 l0 -650 655 0 655 0 0 650 0 650 -655 0 -655 0 0 -650z"/>
<path d="M7030 6240 l0 -650 655 0 655 0 0 650 0 650 -655 0 -655 0 0 -650z"/>
<path d="M11200 6240 l0 -650 655 0 655 0 0 650 0 650 -655 0 -655 0 0 -650z"/>
<path d="M13980 6240 l0 -650 655 0 655 0 0 650 0 650 -655 0 -655 0 0 -650z"/>
<path d="M18150 6240 l0 -650 655 0 655 0 0 650 0 650 -655 0 -655 0 0 -650z"/>
<path d="M20930 6240 l0 -650 655 0 655 0 0 650 0 650 -655 0 -655 0 0 -650z"/>
<path d="M25100 6240 l0 -650 655 0 655 0 0 650 0 650 -655 0 -655 0 0 -650z"/>
<path d="M80 4860 l0 -650 655 0 655 0 0 650 0 650 -655 0 -655 0 0 -650z"/>
<path d="M1470 4860 l0 -650 655 0 655 0 0 650 0 650 -655 0 -655 0 0 -650z"/>
<path d="M2860 4860 l0 -650 655 0 655 0 0 650 0 650 -655 0 -655 0 0 -650z"/>
<path d="M7030 4860 l0 -650 655 0 655 0 0 650 0 650 -655 0 -655 0 0 -650z"/>
<path d="M8420 4860 l0 -650 655 0 655 0 0 650 0 650 -655 0 -655 0 0 -650z"/>
<path d="M9810 4860 l0 -650 655 0 655 0 0 650 0 650 -655 0 -655 0 0 -650z"/>
<path d="M11200 4860 l0 -650 655 0 655 0 0 650 0 650 -655 0 -655 0 0 -650z"/>
<path d="M13980 4860 l0 -650 655 0 655 0 0 650 0 650 -655 0 -655 0 0 -650z"/>
<path d="M18150 4860 l0 -650 655 0 655 0 0 650 0 650 -655 0 -655 0 0 -650z"/>
<path d="M20930 4860 l0 -650 655 0 655 0 0 650 0 650 -655 0 -655 0 0 -650z"/>
<path d="M22320 4860 l0 -650 655 0 655 0 0 650 0 650 -655 0 -655 0 0 -650z"/>
<path d="M23710 4860 l0 -650 655 0 655 0 0 650 0 650 -655 0 -655 0 0 -650z"/>
<path d="M80 3480 l0 -650 655 0 655 0 0 650 0 650 -655 0 -655 0 0 -650z"/>
<path d="M4250 3480 l0 -650 655 0 655 0 0 650 0 650 -655 0 -655 0 0 -650z"/>
<path d="M7030 3480 l0 -650 655 0 655 0 0 650 0 650 -655 0 -655 0 0 -650z"/>
<path d="M11200 3480 l0 -650 655 0 655 0 0 650 0 650 -655 0 -655 0 0 -650z"/>
<path d="M13980 3480 l0 -650 655 0 655 0 0 650 0 650 -655 0 -655 0 0 -650z"/>
<path d="M18150 3480 l0 -650 655 0 655 0 0 650 0 650 -655 0 -655 0 0 -650z"/>
<path d="M20930 3480 l0 -650 655 0 655 0 0 650 0 650 -655 0 -655 0 0 -650z"/>
<path d="M80 2100 l0 -650 655 0 655 0 0 650 0 650 -655 0 -655 0 0 -650z"/>
<path d="M4250 2100 l0 -650 655 0 655 0 0 650 0 650 -655 0 -655 0 0 -650z"/>
<path d="M7030 2100 l0 -650 655 0 655 0 0 650 0 650 -655 0 -655 0 0 -650z"/>
<path d="M11200 2100 l0 -650 655 0 655 0 0 650 0 650 -655 0 -655 0 0 -650z"/>
<path d="M13980 2100 l0 -650 655 0 655 0 0 650 0 650 -655 0 -655 0 0 -650z"/>
<path d="M18150 2100 l0 -650 655 0 655 0 0 650 0 650 -655 0 -655 0 0 -650z"/>
<path d="M20930 2100 l0 -650 655 0 655 0 0 650 0 650 -655 0 -655 0 0 -650z"/>
<path d="M80 720 l0 -650 655 0 655 0 0 650 0 650 -655 0 -655 0 0 -650z"/>
<path d="M4250 720 l0 -650 655 0 655 0 0 650 0 650 -655 0 -655 0 0 -650z"/>
<path d="M7030 720 l0 -650 655 0 655 0 0 650 0 650 -655 0 -655 0 0 -650z"/>
<path d="M11200 720 l0 -650 655 0 655 0 0 650 0 650 -655 0 -655 0 0 -650z"/>
<path d="M13980 720 l0 -650 655 0 655 0 0 650 0 650 -655 0 -655 0 0 -650z"/>
<path d="M15370 720 l0 -650 655 0 655 0 0 650 0 650 -655 0 -655 0 0 -650z"/>
<path d="M16760 720 l0 -650 655 0 655 0 0 650 0 650 -655 0 -655 0 0 -650z"/>
<path d="M20930 720 l0 -650 655 0 655 0 0 650 0 650 -655 0 -655 0 0 -650z"/>
</g>
</svg>
